<?xml version="1.0" encoding="UTF-8" standalone="no"?>
<svg
   xmlns:dc="http://purl.org/dc/elements/1.1/"
   xmlns:cc="http://creativecommons.org/ns#"
   xmlns:rdf="http://www.w3.org/1999/02/22-rdf-syntax-ns#"
   xmlns:svg="http://www.w3.org/2000/svg"
   xmlns="http://www.w3.org/2000/svg"
   xmlns:sodipodi="http://sodipodi.sourceforge.net/DTD/sodipodi-0.dtd"
   xmlns:inkscape="http://www.inkscape.org/namespaces/inkscape"
   width="256px"
   height="249px"
   viewBox="0 0 256 249"
   version="1.1"
   preserveAspectRatio="xMidYMid"
   id="svg4618"
   sodipodi:docname="machinist.svg"
   inkscape:version="0.92.4 (5da689c313, 2019-01-14)">
  <metadata
     id="metadata4624">
    <rdf:RDF>
      <cc:Work
         rdf:about="">
        <dc:format>image/svg+xml</dc:format>
        <dc:type
           rdf:resource="http://purl.org/dc/dcmitype/StillImage" />
        <dc:title></dc:title>
      </cc:Work>
    </rdf:RDF>
  </metadata>
  <defs
     id="defs4622" />
  <sodipodi:namedview
     pagecolor="#ffffff"
     bordercolor="#666666"
     borderopacity="1"
     objecttolerance="10"
     gridtolerance="10"
     guidetolerance="10"
     inkscape:pageopacity="0"
     inkscape:pageshadow="2"
     inkscape:window-width="1850"
     inkscape:window-height="1136"
     id="namedview4620"
     showgrid="false"
     inkscape:zoom="3.7028112"
     inkscape:cx="128"
     inkscape:cy="124.5"
     inkscape:window-x="70"
     inkscape:window-y="27"
     inkscape:window-maximized="1"
     inkscape:current-layer="svg4618" />
  <path
     style="fill:#326de6"
     inkscape:connector-curvature="0"
     id="path4610"
     d="m 79.38451,244.93419 c -5.945806,0 -11.56129,-2.64258 -15.36,-7.43226 L 6.2180589,165.65677 C 2.4193492,160.8671 0.93289764,154.75613 2.4193492,148.81032 L 23.06451,59.127742 C 24.385801,53.181936 28.349672,48.392258 33.799994,45.749677 L 117.37161,5.7806452 c 2.64258,-1.3212904 5.61548,-1.9819355 8.58838,-1.9819355 2.97291,0 5.94581,0.6606451 8.58839,1.9819355 L 218.12,45.584516 c 5.45032,2.642581 9.41419,7.432258 10.73548,13.378065 l 20.64516,89.682579 c 1.32129,5.94581 0,12.05677 -3.79871,16.84645 l -57.80645,71.84516 c -3.79871,4.62452 -9.4142,7.43226 -15.36,7.43226 z" />
  <path
     style="fill:#ffffff"
     inkscape:connector-curvature="0"
     id="path4612"
     d="m 128.49548,7.9277419 c 2.31226,0 4.62452,0.4954839 6.77162,1.4864517 l 83.57161,39.8038704 c 4.29419,2.147097 7.59742,6.110968 8.58839,10.735484 l 20.64516,89.682582 c 1.15613,4.78968 0,9.74451 -3.13807,13.54322 l -57.80645,71.84517 c -2.9729,3.79871 -7.59742,5.9458 -12.3871,5.9458 H 82.085161 c -4.789677,0 -9.414193,-2.14709 -12.387097,-5.9458 L 11.891613,163.17935 C 8.9187097,159.38064 7.7625807,154.42581 8.7535484,149.63613 L 29.39871,59.953548 C 30.554839,55.163871 33.692903,51.2 37.987097,49.218064 L 121.55871,9.2490323 c 2.1471,-0.8258065 4.62452,-1.3212904 6.93677,-1.3212904 z m 0,-7.76258061 v 0 c -3.46838,0 -6.93677,0.82580645 -10.24,2.31225811 L 34.683871,42.446452 C 28.077419,45.584516 23.452903,51.365161 21.80129,58.467097 L 1.156129,148.14968 c -1.65161287,7.10193 0,14.36903 4.6245162,20.14967 l 57.8064518,71.84517 c 4.459355,5.61548 11.230968,8.75354 18.332903,8.75354 h 92.65548 c 7.10194,0 13.87355,-3.13806 18.33291,-8.75354 l 57.80645,-71.84517 c 4.62451,-5.61548 6.27613,-13.04774 4.62451,-20.14967 L 234.69419,58.467097 C 233.04258,51.365161 228.41807,45.584516 221.81161,42.446452 L 138.57032,2.4774194 C 135.43226,0.99096774 131.96387,0.16516129 128.49548,0.16516129 Z" />
  <g
     id="g4790"
     transform="matrix(0.4862621,0,0,0.4862621,47.772269,38.272811)"
     style="fill:#ffffff;fill-opacity:0.94117647">
    <g
       id="XMLID_510_"
       style="fill:#ffffff;fill-opacity:0.94117647">
	<path
   d="m 195.386,181.141 c -1.554,-4.095 -3.965,-7.853 -7.155,-11.043 -5.932,-5.933 -13.817,-9.2 -22.206,-9.2 -8.389,0 -16.275,3.268 -22.208,9.199 -0.723,0.722 -1.403,1.475 -2.045,2.252 -0.013,0.015 -0.025,0.028 -0.037,0.042 -4.609,5.603 -7.117,12.566 -7.117,19.913 0,8.388 3.267,16.274 9.198,22.204 5.933,5.933 13.817,9.2 22.207,9.2 h 0.002 c 8.387,0 16.271,-3.267 22.204,-9.199 5.932,-5.932 9.198,-13.818 9.199,-22.207 0,-3.733 -0.65,-7.365 -1.891,-10.771 -0.051,-0.131 -0.104,-0.258 -0.151,-0.39 z"
   id="XMLID_511_"
   inkscape:connector-curvature="0"
   style="fill:#ffffff;fill-opacity:0.94117647" />

	<path
   d="M 208.83,26.262 C 192.661,13.124 170.605,8.203 152.647,13.712 c -29.288,8.971 -50.995,29.482 -59.553,56.276 -9.321,29.184 -2.61,61.99 18.853,93.173 2.804,-5.184 6.371,-9.993 10.656,-14.277 3.191,-3.191 6.681,-5.974 10.393,-8.351 9.775,-6.264 21.14,-9.636 33.028,-9.636 2.142,0 4.266,0.114 6.367,0.33 10.335,1.058 20.104,4.694 28.571,10.58 0.941,-8.659 5.545,-15.155 11.477,-23.501 7.27,-10.229 16.32,-22.962 18.082,-41.671 1.782,-19.363 -6.124,-37.724 -21.691,-50.373 z"
   id="XMLID_512_"
   inkscape:connector-curvature="0"
   style="fill:#ffffff;fill-opacity:0.94117647" />

	<path
   d="m 206.897,269.497 c 5.224,11.412 11.726,25.615 27.048,36.498 9.818,6.94 21.156,10.48 32.811,10.48 7.193,0 14.508,-1.349 21.658,-4.08 19.461,-7.432 34.756,-24.071 38.963,-42.383 6.875,-29.849 -0.036,-58.902 -18.961,-79.71 -20.616,-22.668 -52.386,-33.256 -90.132,-30.258 5.482,8.846 8.621,18.949 9.078,29.541 0.039,0.902 0.066,1.809 0.066,2.718 -0.001,13.136 -4.107,25.635 -11.696,36.052 -1.888,2.59 -3.98,5.057 -6.29,7.366 -5.06,5.062 -10.85,9.129 -17.13,12.108 7.006,5.144 10.329,12.371 14.585,21.668 z"
   id="XMLID_515_"
   inkscape:connector-curvature="0"
   style="fill:#ffffff;fill-opacity:0.94117647" />

	<path
   d="m 33.602,194.279 c -17.659,8.139 -29.607,24.165 -32.778,43.969 -3.294,20.569 3.468,42.136 17.223,54.936 17.722,16.509 39.321,25.304 61.173,25.304 5.783,0 11.587,-0.617 17.338,-1.869 29.947,-6.522 55.012,-28.753 71.285,-62.955 -0.606,0.017 -1.209,0.044 -1.817,0.044 -0.002,0 -0.002,0 -0.004,0 -10.028,-0.001 -19.683,-2.399 -28.325,-6.905 -5.496,-2.864 -10.586,-6.574 -15.093,-11.082 -5.396,-5.395 -9.647,-11.625 -12.67,-18.39 -3.473,-7.775 -5.315,-16.257 -5.315,-25.028 0,-1.684 0.084,-3.354 0.218,-5.014 -7.972,3.518 -15.902,2.781 -26.102,1.814 -12.499,-1.182 -28.05,-2.653 -45.133,5.176 z"
   id="XMLID_516_"
   inkscape:connector-curvature="0"
   style="fill:#ffffff;fill-opacity:0.94117647" />

</g>
    <g
       id="g4733"
       style="fill:#ffffff;fill-opacity:0.94117647">
</g>
    <g
       id="g4735"
       style="fill:#ffffff;fill-opacity:0.94117647">
</g>
    <g
       id="g4737"
       style="fill:#ffffff;fill-opacity:0.94117647">
</g>
    <g
       id="g4739"
       style="fill:#ffffff;fill-opacity:0.94117647">
</g>
    <g
       id="g4741"
       style="fill:#ffffff;fill-opacity:0.94117647">
</g>
    <g
       id="g4743"
       style="fill:#ffffff;fill-opacity:0.94117647">
</g>
    <g
       id="g4745"
       style="fill:#ffffff;fill-opacity:0.94117647">
</g>
    <g
       id="g4747"
       style="fill:#ffffff;fill-opacity:0.94117647">
</g>
    <g
       id="g4749"
       style="fill:#ffffff;fill-opacity:0.94117647">
</g>
    <g
       id="g4751"
       style="fill:#ffffff;fill-opacity:0.94117647">
</g>
    <g
       id="g4753"
       style="fill:#ffffff;fill-opacity:0.94117647">
</g>
    <g
       id="g4755"
       style="fill:#ffffff;fill-opacity:0.94117647">
</g>
    <g
       id="g4757"
       style="fill:#ffffff;fill-opacity:0.94117647">
</g>
    <g
       id="g4759"
       style="fill:#ffffff;fill-opacity:0.94117647">
</g>
    <g
       id="g4761"
       style="fill:#ffffff;fill-opacity:0.94117647">
</g>
  </g>
</svg>
